<?xml version="1.0" encoding="UTF-8" standalone="no"?>
<svg
   id="svg11"
   xml:space="preserve"
   enable-background="new 0 0 200 200"
   viewBox="0 0 120.00053 119.61446"
   y="0px"
   x="0px"
   version="1.1"
   sodipodi:docname="disknotifier-logo-cropped.svg"
   width="120.00053"
   height="119.61446"
   inkscape:version="1.1.1 (3bf5ae0d25, 2021-09-20)"
   xmlns:inkscape="http://www.inkscape.org/namespaces/inkscape"
   xmlns:sodipodi="http://sodipodi.sourceforge.net/DTD/sodipodi-0.dtd"
   xmlns="http://www.w3.org/2000/svg"
   xmlns:svg="http://www.w3.org/2000/svg"
   xmlns:rdf="http://www.w3.org/1999/02/22-rdf-syntax-ns#"
   xmlns:cc="http://creativecommons.org/ns#"
   xmlns:dc="http://purl.org/dc/elements/1.1/"><sodipodi:namedview
     id="namedview13"
     pagecolor="#ffffff"
     bordercolor="#666666"
     borderopacity="1.0"
     inkscape:pageshadow="2"
     inkscape:pageopacity="0.0"
     inkscape:pagecheckerboard="0"
     showgrid="false"
     inkscape:zoom="3.635"
     inkscape:cx="59.97249"
     inkscape:cy="59.97249"
     inkscape:window-width="3440"
     inkscape:window-height="1375"
     inkscape:window-x="0"
     inkscape:window-y="0"
     inkscape:window-maximized="1"
     inkscape:current-layer="svg11" /><metadata
     id="metadata15"><rdf:RDF><cc:Work
         rdf:about=""><dc:format>image/svg+xml</dc:format><dc:type
           rdf:resource="http://purl.org/dc/dcmitype/StillImage" /></cc:Work></rdf:RDF></metadata><defs
     id="defs156524" /><linearGradient
     spreadMethod="pad"
     y2="0.30000001"
     x2="-0.1"
     y1="1.2"
     x1="0.30000001"
     id="3d_gradient2-logo-6460d3c9-261e-45a6-b9ff-764c07d61ba5"><stop
       id="stop156501"
       stop-opacity="1"
       stop-color="#ffffff"
       offset="0%" /><stop
       id="stop156503"
       stop-opacity="1"
       stop-color="#000000"
       offset="100%" /></linearGradient><linearGradient
     gradientTransform="rotate(-30)"
     spreadMethod="pad"
     y2="0.30000001"
     x2="-0.1"
     y1="1.2"
     x1="0.30000001"
     id="3d_gradient3-logo-6460d3c9-261e-45a6-b9ff-764c07d61ba5"><stop
       id="stop156506"
       stop-opacity="1"
       stop-color="#ffffff"
       offset="0%" /><stop
       id="stop156508"
       stop-opacity="1"
       stop-color="#cccccc"
       offset="50%" /><stop
       id="stop156510"
       stop-opacity="1"
       stop-color="#000000"
       offset="100%" /></linearGradient><path
     style="fill:#22ffd1;stroke-width:0.900194"
     d="m 54.406853,0.006905 c -0.1031,0.004 -0.390396,0.02702 -0.638148,0.05105 -0.24775,0.02452 -1.002006,0.112614 -1.6767,0.196197 -0.674182,0.08358 -1.744306,0.23974 -2.377412,0.346854 -0.633142,0.107609 -1.545092,0.276278 -2.027056,0.37538 -0.481488,0.0991 -1.371356,0.300809 -1.977006,0.448459 -0.605614,0.14765 -1.551574,0.395401 -2.102132,0.551063 -0.550558,0.155661 -1.631692,0.493504 -2.402438,0.750761 -0.770782,0.257257 -1.795346,0.619126 -2.27731,0.804818 -0.481486,0.185188 -1.224714,0.481991 -1.651676,0.659671 -0.42643,0.177176 -1.102106,0.469478 -1.501522,0.649157 -0.398904,0.179679 -0.743758,0.343352 -0.765778,0.363867 -0.02202,0.02002 2.002572,3.604196 4.49908,7.964555 2.496506,4.360448 4.566592,7.957532 4.60017,7.99408 0.04954,0.05406 0.318326,-0.02052 1.481538,-0.41192 0.781792,-0.26327 1.928486,-0.622628 2.547548,-0.798813 0.61963,-0.176177 1.610628,-0.434443 2.202234,-0.573586 0.592104,-0.138639 1.413934,-0.320325 1.826854,-0.402909 0.412918,-0.08258 1.128122,-0.212211 1.589112,-0.287792 l 0.83835,-0.137639 V 0.001666 Z m 11.102994,-0.0065 h -0.1042 v 18.543992 l 0.7883,0.11662 c 0.43346,0.06407 1.28378,0.214219 1.88942,0.333837 0.60562,0.119617 1.473,0.310314 1.92696,0.423928 0.45446,0.113613 1.16368,0.305814 1.5766,0.426935 0.41292,0.121625 1.17872,0.365874 1.70172,0.543051 0.52304,0.177176 1.2663,0.444947 1.65168,0.595604 0.3854,0.150656 0.96348,0.388397 1.28476,0.528035 0.32132,0.140143 0.92944,0.416421 1.35136,0.614626 0.42194,0.1977 1.15018,0.562567 1.6182,0.810822 0.46798,0.248256 1.30132,0.720731 1.85188,1.050526 0.55056,0.330335 1.36442,0.844355 1.80884,1.143696 0.44446,0.298802 1.21022,0.842852 1.70174,1.209771 0.4915,0.36637 1.17564,0.899915 1.51952,1.185195 0.34434,0.285289 0.91846,0.77729 1.2763,1.092565 0.35786,0.31532 1.24776,1.174663 1.97754,1.910481 l 1.32634,1.336878 3.12818,-2.170727 c 1.72026,-1.193747 3.80332,-2.640178 4.62916,-3.213782 0.82584,-0.573585 2.841903,-1.971964 4.479543,-3.107649 1.63818,-1.135684 2.99458,-2.079627 3.01456,-2.098171 0.0204,-0.01852 -0.22422,-0.336844 -0.54354,-0.70722 -0.31934,-0.370879 -0.90992,-1.033512 -1.31286,-1.472537 -0.4029,-0.439447 -1.1842,-1.250279 -1.73628,-1.801827 -0.55206,-0.552062 -1.37442,-1.341829 -1.82686,-1.755738 -0.45296,-0.413423 -1.138663,-1.02208 -1.524023,-1.352361 -0.3854,-0.329831 -1.03856,-0.87038 -1.45148,-1.201219 -0.41292,-0.330839 -0.98698,-0.782295 -1.2763,-1.003536 -0.28878,-0.221727 -0.91946,-0.684192 -1.40142,-1.028561 -0.48148,-0.344351 -1.18572,-0.833346 -1.56462,-1.086624 -0.37888,-0.252756 -1.0886,-0.710217 -1.5766,-1.016499 -0.4885,-0.305814 -1.32688,-0.808824 -1.86386,-1.11714 -0.53654,-0.308317 -1.45344,-0.813325 -2.03758,-1.121642 -0.58358,-0.308316 -1.54104,-0.7873 -2.12716,-1.065109 -0.58608,-0.277278 -1.60612,-0.734747 -2.26678,-1.017039 -0.66066,-0.282283 -1.77526,-0.727734 -2.4775,-0.989493 -0.70172,-0.262262 -1.7678,-0.637643 -2.36842,-0.833849 -0.60112,-0.196198 -1.60558,-0.502011 -2.23274,-0.680187 -0.62714,-0.178184 -1.64466,-0.446955 -2.2613,-0.596603 -0.61612,-0.150152 -1.51448,-0.353857 -1.99654,-0.45296 -0.48148,-0.0986 -1.32634,-0.257257 -1.8769,-0.351858 -0.55056,-0.0951 -1.30484,-0.216722 -1.6767,-0.270779 -0.37138,-0.05406 -1.1752,-0.155661 -1.78526,-0.226227 C 66.113407,0.05756 65.566867,0 65.509787,0 Z m -39.9326,10.672715 c -0.02602,-0.0086 -0.393896,0.236742 -0.817826,0.545554 -0.423432,0.308811 -1.07411,0.79831 -1.44598,1.087614 -0.371376,0.28979 -1.06961,0.85387 -1.551574,1.25379 -0.481488,0.399407 -1.178714,0.997504 -1.549054,1.328866 -0.370376,0.331334 -1.086084,0.993004 -1.590642,1.470466 -0.504514,0.477481 -1.3484,1.322385 -1.874924,1.876904 -0.527036,0.554565 -1.293848,1.39143 -1.704696,1.85935 -0.411416,0.467975 -1.02154,1.185736 -1.355872,1.594604 -0.334836,0.408913 -0.862872,1.073571 -1.173222,1.476497 -0.310316,0.402909 -0.912438,1.219223 -1.337868,1.814341 -0.424928,0.5951 -1.06304,1.529519 -1.417446,2.077107 -0.354362,0.547552 -0.869884,1.367844 -1.145136,1.823342 -0.275784,0.455462 -0.733244,1.243798 -1.01704,1.751777 -0.283786,0.508016 -0.811822,1.509535 -1.173222,2.225279 -0.361364,0.715726 -0.839854,1.706768 -1.063038,2.202234 -0.223726,0.495503 -0.578592,1.314823 -0.7893,1.820822 -0.210716,0.506017 -0.541548,1.339399 -0.735746,1.851879 -0.1942,0.512516 -0.551558,1.529069 -0.794808,2.258316 -0.242746,0.729238 -0.567572,1.76528 -0.721236,2.302336 -0.15416,0.536542 -0.401908,1.462994 -0.551062,2.058563 -0.14964,0.5951 -0.37538,1.575069 -0.502506,2.177208 -0.12662,0.602113 -0.317822,1.612607 -0.424928,2.245804 -0.1066,0.633142 -0.23974,1.48901 -0.295804,1.901929 -0.05556,0.412919 -0.14664,1.156209 -0.201202,1.651675 -0.05506,0.495503 -0.13464,1.351371 -0.17668,1.90193 -0.04254,0.550558 -0.1026,1.738724 -0.13414,2.640178 -0.04306,1.231285 -0.04306,2.047044 0,3.278324 0.03152,0.90146 0.09158,2.1006 0.13364,2.66521 0.04204,0.56407 0.13264,1.53258 0.201706,2.15218 0.06908,0.61912 0.18168,1.52007 0.250254,2.00203 0.06856,0.48149 0.204208,1.3258 0.300808,1.87537 0.0966,0.55007 0.277782,1.48451 0.402406,2.07711 0.12462,0.59261 0.36987,1.64069 0.545552,2.32889 0.17518,0.6882 0.445452,1.67922 0.59961,2.20224 0.15466,0.52303 0.449954,1.45597 0.656664,2.07314 0.206712,0.61663 0.54505,1.57057 0.751762,2.11915 0.207206,0.54855 0.519024,1.34039 0.693708,1.75925 0.17468,0.41941 0.47098,1.10958 0.658166,1.53456 0.1877,0.42493 0.683194,1.45894 1.101658,2.29882 0.418428,0.83986 1.006056,1.96602 1.306812,2.50254 0.300304,0.53654 0.77078,1.34741 1.045574,1.80183 0.274776,0.45396 0.689702,1.11867 0.921978,1.4765 0.232232,0.35786 0.667674,1.011 0.96852,1.45147 0.300304,0.44044 0.793808,1.13865 1.096074,1.55157 0.302304,0.41292 0.786798,1.05458 1.076632,1.42645 0.290296,0.37137 0.848866,1.06259 1.241728,1.53555 0.392898,0.47248 1.002546,1.18222 1.354882,1.57606 0.352354,0.3944 1.059618,1.156211 1.572098,1.693261 0.512022,0.53655 1.39044,1.40647 1.95198,1.93245 0.561072,0.52553 1.25577,1.16566 1.543562,1.4214 0.287792,0.25626 0.907396,0.7843 1.376396,1.17323 0.469478,0.38939 1.15765,0.94592 1.52907,1.23722 0.371878,0.2913 1.07006,0.81733 1.551574,1.16873 0.48199,0.35185 1.461464,1.02757 2.177208,1.50251 0.715726,0.47499 1.751778,1.13262 2.302336,1.46146 0.550558,0.32834 1.338858,0.7848 1.751776,1.01308 0.41292,0.22873 1.178714,0.63614 1.701726,0.90596 0.523032,0.26977 1.367846,0.68619 1.876904,0.92495 0.50952,0.23823 1.38792,0.63113 1.951982,0.87188 0.564574,0.24124 1.544102,0.63564 2.177208,0.87739 0.633142,0.24124 1.714238,0.62563 2.402436,0.85436 0.688198,0.22823 1.690744,0.54105 2.22726,0.69521 0.537046,0.15365 1.505484,0.41242 2.152184,0.57458 0.647158,0.16216 1.682732,0.3989 2.301344,0.52604 0.618632,0.12712 1.587132,0.30831 2.152184,0.40291 0.56507,0.0941 1.450932,0.22873 1.968994,0.2988 0.51853,0.0696 1.385398,0.17167 1.926954,0.22623 0.542052,0.0551 1.469476,0.13513 2.061084,0.17768 0.592102,0.043 2.022016,0.0911 3.178224,0.1071 1.300334,0.018 2.589134,0.006 3.378434,-0.029 0.7022,-0.032 1.71576,-0.0921 2.25228,-0.13365 0.53704,-0.0415 1.48298,-0.13162 2.10212,-0.2007 0.61964,-0.069 1.509,-0.18168 1.97702,-0.25075 0.46796,-0.0686 1.24524,-0.19319 1.72674,-0.27679 0.482,-0.0835 1.20276,-0.21872 1.60162,-0.3008 0.39942,-0.0821 1.12012,-0.24024 1.60164,-0.35185 0.48198,-0.11162 1.33786,-0.32533 1.90192,-0.47549 0.56458,-0.15015 1.5441,-0.43143 2.17722,-0.62463 0.63314,-0.1937 1.6477,-0.52853 2.25426,-0.74476 0.60662,-0.21622 1.63114,-0.60511 2.2773,-0.86387 0.64566,-0.25876 1.70326,-0.71172 2.35042,-1.00606 0.64716,-0.2948 1.69424,-0.80181 2.32736,-1.12713 0.63314,-0.32484 1.14514,-0.61763 1.1381,-0.64966 -0.008,-0.0325 -2.30232,-3.55514 -5.10012,-7.82791 -2.79836,-4.27331 -5.09466,-7.777851 -5.1032,-7.788921 -0.01,-0.0105 -0.33736,0.12863 -0.73074,0.30881 -0.3929,0.18018 -1.06862,0.47498 -1.50054,0.65516 -0.43244,0.17969 -1.15314,0.46047 -1.60162,0.62413 -0.44896,0.16317 -1.13966,0.40242 -1.53556,0.53104 -0.3959,0.12863 -1.16016,0.35687 -1.69822,0.50652 -0.53854,0.15015 -1.43094,0.37387 -1.98302,0.497001 -0.55256,0.12313 -1.46598,0.3023 -2.03058,0.39791 -0.56406,0.0961 -1.38638,0.21971 -1.82684,0.27477 -0.44046,0.0555 -1.21726,0.13965 -1.72676,0.18769 -0.72424,0.0676 -1.44896,0.0871 -3.32838,0.0886 -1.552558,0.002 -2.668168,-0.0211 -3.153192,-0.0626 -0.41292,-0.035 -1.144688,-0.10862 -1.62665,-0.16317 -0.481488,-0.0545 -1.24731,-0.15666 -1.701728,-0.22623 -0.453958,-0.07 -1.276294,-0.21772 -1.826852,-0.32783 -0.550558,-0.11011 -1.34984,-0.287791 -1.776802,-0.394911 -0.426432,-0.1071 -1.057098,-0.27528 -1.401422,-0.37388 -0.343848,-0.0986 -1.008488,-0.30431 -1.476498,-0.45746 -0.467974,-0.15265 -1.199688,-0.40941 -1.62665,-0.57008 -0.426432,-0.16066 -1.046026,-0.4044 -1.376396,-0.54155 -0.330336,-0.13713 -0.857868,-0.36586 -1.172232,-0.50801 -0.314322,-0.14265 -1.021,-0.48399 -1.570568,-0.75927 -0.549056,-0.27478 -1.24929,-0.64215 -1.555536,-0.81633 -0.305814,-0.17417 -0.78179,-0.44996 -1.057098,-0.61313 -0.275278,-0.16316 -0.826836,-0.50751 -1.226244,-0.76527 -0.398902,-0.25776 -1.097156,-0.73424 -1.551572,-1.05908 -0.45396,-0.32432 -1.072582,-0.78179 -1.373426,-1.01604 -0.301304,-0.23424 -0.785798,-0.62363 -1.076092,-0.86487 -0.290798,-0.24126 -0.84386,-0.71924 -1.229214,-1.06259 -0.385392,-0.34385 -1.106608,-1.03055 -1.602616,-1.52655 -0.495502,-0.4965 -1.172232,-1.20671 -1.503054,-1.57813 -0.330334,-0.37188 -0.772284,-0.87839 -0.98148,-1.12614 -0.209214,-0.24776 -0.632144,-0.77429 -0.939442,-1.17017 -0.307812,-0.3954 -0.768784,-1.01505 -1.024512,-1.37639 -0.255258,-0.36086 -0.625634,-0.89741 -0.821832,-1.19168 -0.1967,-0.2943 -0.569578,-0.8819 -0.829338,-1.30681 -0.25976,-0.42443 -0.668682,-1.12965 -0.909466,-1.56706 -0.240244,-0.43744 -0.63164,-1.18969 -0.86938,-1.67121 -0.237742,-0.48199 -0.57058,-1.19122 -0.739752,-1.5766 -0.16918,-0.38539 -0.44195,-1.03855 -0.60612,-1.45147 -0.16416,-0.41292 -0.42643,-1.11111 -0.58309,-1.55157 -0.15616,-0.44045 -0.415422,-1.24029 -0.575584,-1.77681 -0.16066,-0.53704 -0.393404,-1.38143 -0.517522,-1.8769 -0.12462,-0.4955 -0.306812,-1.30636 -0.404908,-1.80183 -0.0986,-0.4955 -0.235238,-1.25028 -0.303806,-1.6767 -0.06856,-0.42693 -0.15716,-1.03504 -0.1977,-1.35137 -0.04004,-0.31682 -0.10812,-0.95843 -0.15116,-1.42645 -0.04304,-0.46797 -0.1001,-1.29033 -0.12762,-1.82685 -0.02702,-0.53705 -0.04956,-1.43797 -0.05004,-2.00203 0,-0.564574 0.02252,-1.453993 0.05004,-1.977005 0.02752,-0.523031 0.08508,-1.333817 0.12762,-1.801828 0.04254,-0.467975 0.14514,-1.334897 0.228236,-1.926415 0.08308,-0.591598 0.241242,-1.537531 0.351354,-2.102132 0.11012,-0.564575 0.278286,-1.351911 0.373382,-1.749797 0.09458,-0.397903 0.2943,-1.152158 0.443454,-1.676701 0.14916,-0.524533 0.415422,-1.381437 0.592102,-1.904449 0.17668,-0.523031 0.451456,-1.288808 0.61062,-1.701727 0.15916,-0.412919 0.434938,-1.088604 0.612618,-1.501523 0.17818,-0.412919 0.542546,-1.201218 0.809824,-1.751777 0.267266,-0.550558 0.685694,-1.361363 0.92945,-1.801828 0.243744,-0.440447 0.610618,-1.082573 0.815826,-1.426447 0.204704,-0.344351 0.670682,-1.076091 1.035044,-1.62665 0.36437,-0.550558 1.001556,-1.451472 1.414924,-2.002031 0.413918,-0.550558 1.045034,-1.35038 1.401962,-1.776802 0.357358,-0.426935 0.92846,-1.079603 1.269272,-1.451473 0.34085,-0.371879 0.980492,-1.034052 1.420956,-1.471456 0.440952,-0.437945 1.165212,-1.120111 1.609638,-1.516557 0.444948,-0.395905 1.086624,-0.947003 1.426446,-1.224263 0.339842,-0.276783 0.634142,-0.518026 0.653666,-0.536048 0.0196,-0.01802 -2.022014,-3.62418 -4.537606,-8.013614 -2.515592,-4.389975 -4.594678,-7.98814 -4.620694,-7.997142 z m 86.685063,19.451387 c -0.018,-0.01701 -3.4725,2.356887 -7.67478,5.275315 l -7.640763,5.306372 0.1656,0.355865 c 0.091,0.195198 0.31682,0.68169 0.50202,1.081133 0.1846,0.398903 0.52254,1.187175 0.74976,1.751777 0.22774,0.56407 0.5841,1.526548 0.7928,2.13814 0.20872,0.611619 0.50502,1.552114 0.65918,2.09016 0.1536,0.538046 0.378883,1.400431 0.500003,1.916422 0.1206,0.515523 0.2983,1.353892 0.3944,1.863401 0.0962,0.509015 0.23174,1.319864 0.3018,1.801828 0.07,0.481487 0.1612,1.213731 0.20322,1.62665 0.042,0.412919 0.0992,1.043595 0.1266,1.401422 0.028,0.357863 0.0652,1.314823 0.0826,2.127158 0.02,0.915407 0.008,1.923439 -0.028,2.652689 -0.033,0.64666 -0.1042,1.62665 -0.1586,2.17721 -0.054,0.55056 -0.1442,1.31635 -0.1992,1.70173 -0.0554,0.38539 -0.1466,0.97095 -0.2022,1.30132 -0.056,0.33033 -0.1806,0.98346 -0.27678,1.45147 -0.096,0.46797 -0.2848,1.27881 -0.41892,1.80183 -0.1342,0.52303 -0.356883,1.32238 -0.494523,1.7768 -0.1382,0.45396 -0.34384,1.09608 -0.45746,1.42645 -0.1136,0.33033 -0.33184,0.92693 -0.48448,1.32634 -0.1526,0.3989 -0.44546,1.11768 -0.65116,1.59659 -0.20522,0.47848 -0.5836,1.30078 -0.84036,1.82685 -0.25726,0.52553 -0.64116,1.27125 -0.85336,1.65672 -0.21172,0.38539 -0.5886,1.03855 -0.83786,1.45147 -0.24874,0.41292 -0.72372,1.15621 -1.0561,1.65167 -0.33184,0.49551 -0.86488,1.24974 -1.18366,1.6767 -0.31932,0.42694 -0.80182,1.04603 -1.07312,1.3764 -0.27078,0.33034 -0.71872,0.85937 -0.99598,1.17619 -0.27678,0.31632 -0.9209,1.00048 -1.43094,1.51953 -0.51002,0.51952 -1.25424,1.24029 -1.6542,1.60163 -0.39992,0.36186 -0.81032,0.72973 -0.91244,0.81782 l -0.1852,0.16016 5.08366,7.67281 c 2.79582,4.219741 5.11166,7.702321 5.14676,7.738331 0.051,0.054 0.1898,-0.0385 0.75828,-0.50551 0.38288,-0.31383 1.06762,-0.89741 1.5215,-1.29628 0.45396,-0.39891 1.265323,-1.14163 1.801843,-1.65069 0.53704,-0.50852 1.37288,-1.33984 1.8579,-1.84737 0.4855,-0.50702 1.13514,-1.203741 1.44446,-1.547621 0.3093,-0.34435 0.83734,-0.95249 1.17322,-1.35137 0.33634,-0.3989 0.83684,-1.00749 1.11264,-1.35137 0.27578,-0.34435 0.77128,-0.98598 1.10166,-1.42645 0.33032,-0.44044 0.84084,-1.1427 1.13414,-1.56057 0.2938,-0.41793 0.7893,-1.15018 1.10166,-1.62665 0.31182,-0.47699 0.83836,-1.31735 1.17016,-1.8679 0.33134,-0.55056 0.80932,-1.37289 1.06206,-1.82686 0.25274,-0.45446 0.76026,-1.42293 1.12712,-2.15218 0.36738,-0.72974 0.84136,-1.7092 1.0536,-2.17721 0.2127,-0.46797 0.57208,-1.30132 0.7993,-1.85188 0.22674,-0.55056 0.56508,-1.40646 0.75126,-1.90193 0.1862,-0.4955 0.50402,-1.39638 0.70572,-2.00203 0.2022,-0.60561 0.4935,-1.52907 0.64766,-2.05208 0.1542,-0.52303 0.41242,-1.46903 0.57408,-2.10213 0.1616,-0.63314 0.37438,-1.52808 0.47348,-1.98898 0.0986,-0.46097 0.24474,-1.18168 0.32532,-1.60162 0.0806,-0.41994 0.21472,-1.19168 0.29882,-1.71478 0.084,-0.52303 0.2082,-1.39044 0.27626,-1.92696 0.0682,-0.53705 0.1692,-1.49405 0.22524,-2.12716 0.0554,-0.63314 0.1236,-1.55661 0.1512,-2.05208 0.027,-0.4955 0.064,-1.52052 0.0816,-2.27731 0.02,-0.7968 0.008,-2.030025 -0.0254,-2.927968 -0.032,-0.853366 -0.091,-1.979526 -0.1316,-2.502539 -0.04,-0.523031 -0.1186,-1.390439 -0.1742,-1.926955 -0.0556,-0.537046 -0.1806,-1.528079 -0.27778,-2.202234 -0.0976,-0.674686 -0.25576,-1.654196 -0.35186,-2.177208 -0.096,-0.523031 -0.25376,-1.322835 -0.35036,-1.776803 -0.0966,-0.453958 -0.28928,-1.287817 -0.42842,-1.851878 -0.1386,-0.564575 -0.3859,-1.499003 -0.54956,-2.077107 -0.1636,-0.578087 -0.51954,-1.71577 -0.7903,-2.527564 -0.27078,-0.812326 -0.63866,-1.859351 -0.81684,-2.327361 -0.1786,-0.467975 -0.45046,-1.15819 -0.60412,-1.53303 -0.1536,-0.375381 -0.46246,-1.096076 -0.68518,-1.601625 -0.22324,-0.506017 -0.71824,-1.550044 -1.10014,-2.32088 -0.38138,-0.770781 -0.85486,-1.694254 -1.05106,-2.052081 -0.1966,-0.357863 -0.37238,-0.664676 -0.3914,-0.682194 z"
     id="icon" /></svg>
