<?xml version="1.0" standalone="no"?>
<!DOCTYPE svg PUBLIC "-//W3C//DTD SVG 20010904//EN"
 "http://www.w3.org/TR/2001/REC-SVG-20010904/DTD/svg10.dtd">
<svg version="1.0" xmlns="http://www.w3.org/2000/svg"
 width="700.000000pt" height="700.000000pt" viewBox="0 0 700.000000 700.000000"
 preserveAspectRatio="xMidYMid meet">
<metadata>
Created by potrace 1.14, written by Peter Selinger 2001-2017
</metadata>
<g transform="translate(0.000000,700.000000) scale(0.100000,-0.100000)"
fill="#000000" stroke="none">
<path d="M3119 6996 c-2 -2 -29 -7 -59 -9 -69 -7 -173 -23 -270 -43 -41 -9
-82 -17 -91 -19 -91 -18 -411 -122 -524 -170 -92 -39 -125 -56 -125 -64 0 -19
491 -883 519 -914 16 -16 21 -16 106 13 91 31 249 76 295 84 102 17 206 41
210 47 4 6 5 1046 1 1072 -1 7 -54 10 -62 3z"/>
<path d="M3815 6461 c0 -297 2 -542 5 -545 3 -2 23 -7 45 -10 119 -14 434 -96
480 -124 6 -4 15 -7 20 -8 14 -2 237 -103 250 -113 5 -5 37 -23 70 -41 160
-88 338 -224 498 -379 l107 -105 58 40 c31 22 95 67 142 99 47 33 185 129 308
215 122 85 258 180 301 210 l79 54 -31 41 c-17 22 -99 108 -182 191 -290 291
-577 496 -940 674 -132 64 -390 170 -454 186 -9 2 -63 17 -121 34 -142 42
-344 86 -435 95 -22 3 -51 7 -65 9 -14 3 -50 8 -80 11 l-55 5 0 -539z"/>
<path d="M1380 6294 c-52 -41 -117 -94 -145 -116 -92 -76 -359 -352 -443 -458
-46 -58 -90 -112 -97 -121 -16 -21 -137 -197 -150 -221 -5 -9 -29 -48 -51 -85
-193 -316 -353 -736 -428 -1118 -30 -157 -36 -198 -53 -375 -10 -106 -10 -478
0 -583 11 -116 24 -212 41 -302 9 -44 18 -95 21 -113 24 -141 141 -518 205
-657 181 -398 338 -648 581 -930 316 -366 689 -654 1124 -865 138 -67 403
-175 458 -185 9 -2 21 -6 25 -9 10 -6 266 -73 308 -80 15 -3 50 -10 78 -15 62
-13 96 -18 155 -27 25 -3 57 -8 71 -10 113 -19 555 -26 727 -11 93 8 214 22
266 32 15 3 37 7 50 9 84 15 112 21 197 41 254 60 497 148 719 260 l111 55
-43 65 c-23 35 -112 172 -197 302 -282 434 -351 538 -360 541 -4 2 -50 -15
-102 -36 -177 -75 -396 -141 -523 -158 -27 -3 -52 -7 -55 -9 -33 -19 -542 -28
-665 -12 -374 50 -730 182 -1031 382 -157 105 -255 186 -380 311 -346 348
-581 791 -669 1264 -2 14 -7 36 -9 50 -39 201 -39 602 0 795 3 11 7 36 10 55
10 58 43 196 59 241 8 23 17 51 19 63 16 76 128 328 198 445 21 34 38 65 38
68 0 9 129 190 192 270 66 84 248 270 338 346 l55 46 -21 38 c-130 238 -510
893 -518 893 -6 -1 -54 -34 -106 -76z"/>
<path d="M6490 5198 c-25 -17 -126 -87 -225 -156 -99 -69 -210 -146 -246 -171
-59 -41 -218 -152 -273 -191 -12 -8 -36 -24 -54 -35 -17 -11 -32 -24 -32 -29
0 -4 19 -49 41 -100 52 -115 133 -356 154 -461 9 -44 18 -89 21 -100 2 -10 6
-37 9 -60 4 -22 8 -51 10 -65 27 -190 27 -413 0 -645 -4 -33 -9 -67 -10 -75
-51 -252 -97 -407 -171 -573 -130 -293 -283 -515 -515 -746 l-120 -120 299
-451 c254 -384 301 -450 313 -438 8 7 36 31 64 53 58 47 203 184 285 270 431
452 753 1064 882 1674 27 133 34 169 42 236 2 17 7 53 10 80 19 145 23 253 21
476 -1 136 -5 250 -7 255 -3 5 -9 45 -13 89 -3 44 -10 98 -15 120 -5 22 -11
62 -15 89 -16 124 -120 511 -164 611 -5 11 -21 52 -36 90 -41 108 -187 405
-199 405 -6 0 -31 -15 -56 -32z"/>
</g>
</svg>
